<?xml version="1.0" encoding="utf-8"?>
<!-- Generator: Adobe Illustrator 22.0.1, SVG Export Plug-In . SVG Version: 6.00 Build 0)  -->
<svg version="1.1" id="레이어_1" xmlns="http://www.w3.org/2000/svg" xmlns:xlink="http://www.w3.org/1999/xlink" x="0px"
	 y="0px" viewBox="0 0 16 16" style="enable-background:new 0 0 16 16;" xml:space="preserve">
<style type="text/css">
	.st0{fill:#FFFFFF;}
	.st1{fill:#082E59;}
</style>
<g>
	<path class="st0" d="M4,0h8c2.2,0,4,1.8,4,4v8c0,2.2-1.8,4-4,4H4c-2.2,0-4-1.8-4-4V4C0,1.8,1.8,0,4,0z"/>
</g>
<path class="st1" d="M6.7,11.7c-0.3,0-0.6-0.1-0.8-0.3L3.4,9C3,8.6,3,7.9,3.4,7.5c0,0,0,0,0,0C3.8,7.1,4.5,7,5,7.5l1.7,1.6L11,4.6
	c0.4-0.4,1.1-0.4,1.5,0c0.4,0.4,0.4,1.1,0,1.5c0,0,0,0,0,0l-5.1,5.1C7.2,11.6,7,11.7,6.7,11.7L6.7,11.7z"/>
</svg>
