<svg xmlns="http://www.w3.org/2000/svg" width="14" height="14" viewBox="0 0 14 14">
    <path style="fill:none" d="M0 0h14v14H0z"/>
    <path data-name="-e-ico_detail" d="m12.232 13.7-2.418-2.4a6.225 6.225 0 1 1 1.462-1.451l2.419 2.4a1.017 1.017 0 0 1 0 1.449 1.044 1.044 0 0 1-1.463 0zM1.665 6.222a4.558 4.558 0 1 0 4.558-4.558 4.563 4.563 0 0 0-4.558 4.558zm3.779 1.945V7h-.777a.778.778 0 1 1 0-1.555h.778V4.278a.778.778 0 0 1 1.555 0v1.166h.778a.778.778 0 0 1 0 1.556H7v1.167a.778.778 0 0 1-1.556 0z" style="fill:#082e59"/>
</svg>
