<svg xmlns="http://www.w3.org/2000/svg" width="12" height="12" viewBox="0 0 12 12">
    <path d="M3045 3026.668v-9.328l6.923-1.336v12zm3.478-4.153a1.2 1.2 0 0 0 .1.309l.8 1.523h1.247l-1.439-2.355 1.4-2.32h-1.172l-.745 1.39a4.79 4.79 0 0 0-.145.41h-.012a3.164 3.164 0 0 0-.141-.4l-.668-1.4h-1.284l1.364 2.339-1.488 2.336h1.254l.809-1.512a2.1 2.1 0 0 0 .108-.321zm3.9 4.1v-1.383h1.387v-.921h-1.387v-.918h1.387v-.926h-1.387v-.926h1.387v-.921h-1.387v-.918h1.4v-.933h-1.4v-1.383h4.228a.4.4 0 0 1 .389.406v8.426a.393.393 0 0 1-.389.4zm1.847-1.383h1.844v-.921h-1.844zm0-1.84h1.844v-.926h-1.844zm0-1.852h1.844v-.921h-1.844zm0-1.847h1.844v-.918h-1.844z" transform="translate(-3045.004 -3016.004)" style="fill:#39825a"/>
</svg>
