<svg xmlns="http://www.w3.org/2000/svg" width="14" height="14" viewBox="0 0 14 14">
    <path style="fill:none" d="M0 0h14v14H0z"/>
    <path data-name="-e-ic_location_list" d="m1160.949 3392-.365-.278a24.085 24.085 0 0 1-2.757-2.542c-1.876-2.03-2.828-3.853-2.828-5.417v-.155a5.96 5.96 0 0 1 11.9 0v.155c0 1.564-.951 3.386-2.827 5.417a23.736 23.736 0 0 1-2.758 2.541l-.364.278zm0-12.547a4.371 4.371 0 0 0-4.489 4.232v.146c0 2.492 3.436 5.519 4.489 6.387 1.053-.868 4.49-3.893 4.49-6.387v-.146a4.372 4.372 0 0 0-4.491-4.233zm0 7.207a2.709 2.709 0 1 1 2.709-2.709 2.712 2.712 0 0 1-2.708 2.708zm0-4.039a1.33 1.33 0 1 0 1.33 1.33 1.332 1.332 0 0 0-1.329-1.331z" transform="translate(-1153.949 -3377.999)" style="fill:#082e59"/>
</svg>
